<mxfile host="app.diagrams.net" modified="2021-06-11T03:16:04.052Z" agent="5.0 (Windows NT 10.0; Win64; x64) AppleWebKit/537.36 (KHTML, like Gecko) Chrome/91.0.4472.77 Safari/537.36 Edg/91.0.864.41" etag="94aU-6GMjiTfTKzvUHuz" version="14.7.7" type="github">
  <diagram id="6ixLUUBaDGWK_DpGOWw7" name="Page-1">
    <mxGraphModel dx="1422" dy="762" grid="1" gridSize="10" guides="1" tooltips="1" connect="1" arrows="1" fold="1" page="1" pageScale="1" pageWidth="827" pageHeight="1169" math="0" shadow="0">
      <root>
        <mxCell id="0" />
        <mxCell id="1" parent="0" />
        <mxCell id="3C8S2D05drG-myASjoGZ-3" value="" style="edgeStyle=orthogonalEdgeStyle;rounded=0;orthogonalLoop=1;jettySize=auto;html=1;startArrow=none;" edge="1" parent="1" source="3C8S2D05drG-myASjoGZ-7" target="3C8S2D05drG-myASjoGZ-2">
          <mxGeometry relative="1" as="geometry" />
        </mxCell>
        <mxCell id="3C8S2D05drG-myASjoGZ-1" value="新活动中心" style="rounded=0;whiteSpace=wrap;html=1;" vertex="1" parent="1">
          <mxGeometry x="340" y="250" width="120" height="60" as="geometry" />
        </mxCell>
        <mxCell id="3C8S2D05drG-myASjoGZ-5" value="" style="edgeStyle=orthogonalEdgeStyle;rounded=0;orthogonalLoop=1;jettySize=auto;html=1;" edge="1" parent="1" source="3C8S2D05drG-myASjoGZ-2" target="3C8S2D05drG-myASjoGZ-4">
          <mxGeometry relative="1" as="geometry" />
        </mxCell>
        <mxCell id="3C8S2D05drG-myASjoGZ-2" value="进入活动中心大厅" style="rounded=0;whiteSpace=wrap;html=1;" vertex="1" parent="1">
          <mxGeometry x="340" y="525" width="120" height="60" as="geometry" />
        </mxCell>
        <mxCell id="3C8S2D05drG-myASjoGZ-15" style="edgeStyle=orthogonalEdgeStyle;rounded=0;orthogonalLoop=1;jettySize=auto;html=1;entryX=0;entryY=0.5;entryDx=0;entryDy=0;" edge="1" parent="1" source="3C8S2D05drG-myASjoGZ-4" target="3C8S2D05drG-myASjoGZ-14">
          <mxGeometry relative="1" as="geometry">
            <Array as="points" />
          </mxGeometry>
        </mxCell>
        <mxCell id="3C8S2D05drG-myASjoGZ-17" style="edgeStyle=orthogonalEdgeStyle;rounded=0;orthogonalLoop=1;jettySize=auto;html=1;entryX=0.5;entryY=0;entryDx=0;entryDy=0;" edge="1" parent="1" source="3C8S2D05drG-myASjoGZ-4" target="3C8S2D05drG-myASjoGZ-16">
          <mxGeometry relative="1" as="geometry" />
        </mxCell>
        <mxCell id="3C8S2D05drG-myASjoGZ-4" value="玩家点击子游戏入口" style="rhombus;whiteSpace=wrap;html=1;rounded=0;" vertex="1" parent="1">
          <mxGeometry x="320" y="760" width="160" height="80" as="geometry" />
        </mxCell>
        <mxCell id="3C8S2D05drG-myASjoGZ-6" value="展示子游戏列表，显示是否需要更新状态" style="rounded=0;whiteSpace=wrap;html=1;" vertex="1" parent="1">
          <mxGeometry x="345" y="640" width="120" height="60" as="geometry" />
        </mxCell>
        <mxCell id="3C8S2D05drG-myASjoGZ-10" style="edgeStyle=orthogonalEdgeStyle;rounded=0;orthogonalLoop=1;jettySize=auto;html=1;entryX=0;entryY=0.5;entryDx=0;entryDy=0;" edge="1" parent="1" source="3C8S2D05drG-myASjoGZ-7" target="3C8S2D05drG-myASjoGZ-12">
          <mxGeometry relative="1" as="geometry">
            <Array as="points">
              <mxPoint x="540" y="380" />
              <mxPoint x="540" y="380" />
            </Array>
          </mxGeometry>
        </mxCell>
        <mxCell id="3C8S2D05drG-myASjoGZ-7" value="&lt;span&gt;进入游戏，Lua层检查大厅更新&lt;/span&gt;" style="rhombus;whiteSpace=wrap;html=1;" vertex="1" parent="1">
          <mxGeometry x="335" y="340" width="130" height="80" as="geometry" />
        </mxCell>
        <mxCell id="3C8S2D05drG-myASjoGZ-8" value="" style="edgeStyle=orthogonalEdgeStyle;rounded=0;orthogonalLoop=1;jettySize=auto;html=1;endArrow=none;" edge="1" parent="1" source="3C8S2D05drG-myASjoGZ-1" target="3C8S2D05drG-myASjoGZ-7">
          <mxGeometry relative="1" as="geometry">
            <mxPoint x="400" y="310" as="sourcePoint" />
            <mxPoint x="400" y="390" as="targetPoint" />
          </mxGeometry>
        </mxCell>
        <mxCell id="3C8S2D05drG-myASjoGZ-9" value="无更新" style="text;html=1;strokeColor=none;fillColor=none;align=center;verticalAlign=middle;whiteSpace=wrap;rounded=0;" vertex="1" parent="1">
          <mxGeometry x="360" y="460" width="40" height="20" as="geometry" />
        </mxCell>
        <mxCell id="3C8S2D05drG-myASjoGZ-11" value="有更新" style="text;html=1;strokeColor=none;fillColor=none;align=center;verticalAlign=middle;whiteSpace=wrap;rounded=0;" vertex="1" parent="1">
          <mxGeometry x="490" y="360" width="40" height="20" as="geometry" />
        </mxCell>
        <mxCell id="3C8S2D05drG-myASjoGZ-13" style="edgeStyle=orthogonalEdgeStyle;rounded=0;orthogonalLoop=1;jettySize=auto;html=1;entryX=1;entryY=0.5;entryDx=0;entryDy=0;" edge="1" parent="1" source="3C8S2D05drG-myASjoGZ-12" target="3C8S2D05drG-myASjoGZ-2">
          <mxGeometry relative="1" as="geometry">
            <Array as="points">
              <mxPoint x="620" y="555" />
            </Array>
          </mxGeometry>
        </mxCell>
        <mxCell id="3C8S2D05drG-myASjoGZ-12" value="下载大厅更新包并应用" style="rounded=0;whiteSpace=wrap;html=1;" vertex="1" parent="1">
          <mxGeometry x="560" y="350" width="120" height="60" as="geometry" />
        </mxCell>
        <mxCell id="3C8S2D05drG-myASjoGZ-20" style="edgeStyle=orthogonalEdgeStyle;rounded=0;orthogonalLoop=1;jettySize=auto;html=1;entryX=1;entryY=0.5;entryDx=0;entryDy=0;" edge="1" parent="1" source="3C8S2D05drG-myASjoGZ-14" target="3C8S2D05drG-myASjoGZ-16">
          <mxGeometry relative="1" as="geometry">
            <Array as="points">
              <mxPoint x="620" y="960" />
            </Array>
          </mxGeometry>
        </mxCell>
        <mxCell id="3C8S2D05drG-myASjoGZ-14" value="下载子游戏更新包并应用" style="rounded=0;whiteSpace=wrap;html=1;" vertex="1" parent="1">
          <mxGeometry x="560" y="770" width="120" height="60" as="geometry" />
        </mxCell>
        <mxCell id="3C8S2D05drG-myASjoGZ-16" value="进入子游戏" style="rounded=0;whiteSpace=wrap;html=1;" vertex="1" parent="1">
          <mxGeometry x="340" y="930" width="120" height="60" as="geometry" />
        </mxCell>
        <mxCell id="3C8S2D05drG-myASjoGZ-18" value="无更新" style="text;html=1;strokeColor=none;fillColor=none;align=center;verticalAlign=middle;whiteSpace=wrap;rounded=0;" vertex="1" parent="1">
          <mxGeometry x="360" y="870" width="40" height="20" as="geometry" />
        </mxCell>
        <mxCell id="3C8S2D05drG-myASjoGZ-19" value="有更新" style="text;html=1;strokeColor=none;fillColor=none;align=center;verticalAlign=middle;whiteSpace=wrap;rounded=0;" vertex="1" parent="1">
          <mxGeometry x="490" y="780" width="40" height="20" as="geometry" />
        </mxCell>
      </root>
    </mxGraphModel>
  </diagram>
</mxfile>
